<?xml version="1.0" standalone="no"?>
<!DOCTYPE svg PUBLIC "-//W3C//DTD SVG 20010904//EN"
 "http://www.w3.org/TR/2001/REC-SVG-20010904/DTD/svg10.dtd">
<svg version="1.0" xmlns="http://www.w3.org/2000/svg"
 width="500.000000pt" height="500.000000pt" viewBox="0 0 500.000000 500.000000"
 preserveAspectRatio="xMidYMid meet">
<metadata>
Created by potrace 1.16, written by Peter Selinger 2001-2019
</metadata>
<g transform="translate(0.000000,500.000000) scale(0.100000,-0.100000)"
fill="#000000" stroke="none">
<path d="M2685 4928 c-93 -27 -183 -53 -200 -58 -77 -21 -209 -61 -299 -89
-54 -17 -101 -31 -105 -31 -3 0 1 -5 9 -11 12 -8 10 -9 -7 -4 -20 5 -206 -42
-333 -85 -79 -26 -503 -156 -555 -170 -204 -53 -567 -175 -583 -197 -9 -13
-12 -224 -11 -982 1 -531 4 -976 7 -989 4 -12 41 -59 83 -105 128 -139 433
-483 600 -677 40 -47 94 -108 119 -135 25 -28 77 -86 115 -130 88 -100 158
-179 165 -185 3 -3 54 -60 113 -127 178 -202 214 -224 273 -162 33 35 115 91
189 129 141 73 834 527 935 612 8 7 47 34 85 60 39 26 108 76 156 111 l85 64
31 -26 c17 -14 64 -71 103 -126 133 -184 192 -222 239 -156 12 16 21 33 21 39
0 5 7 15 15 22 8 7 17 28 21 49 3 20 14 59 25 86 10 28 30 95 44 149 l26 100
-2 773 c-1 425 -5 771 -7 768 -6 -6 -9 -50 -13 -195 l-2 -115 -8 90 c-4 50 -8
133 -9 185 -1 64 -5 87 -10 70 -4 -14 -8 -19 -9 -12 -1 15 -27 16 -37 0 -4 -6
-3 -8 3 -5 6 4 14 0 17 -9 9 -22 8 -26 -6 -22 -14 5 -38 -35 -38 -63 0 -10 -5
-21 -12 -25 -8 -5 -9 0 -6 14 4 12 2 25 -3 28 -5 3 -9 -6 -9 -20 0 -36 -10
-55 -26 -49 -9 3 -14 -2 -14 -15 0 -18 -14 -27 -72 -46 -10 -3 -18 -15 -18
-26 0 -13 -4 -18 -11 -15 -6 4 -8 22 -4 46 4 25 3 39 -4 39 -6 0 -11 -12 -11
-26 0 -20 -4 -25 -16 -20 -9 3 -20 6 -25 6 -5 0 -9 7 -9 15 0 9 -7 18 -16 22
-14 5 -15 8 -3 17 17 13 24 46 10 46 -7 0 -7 9 -1 26 13 33 12 44 -1 22 -18
-31 -32 -21 -25 17 5 27 4 35 -8 35 -9 0 -13 -6 -10 -14 3 -8 0 -17 -7 -22 -9
-5 -11 1 -6 24 4 19 2 32 -3 32 -6 0 -10 13 -10 30 0 24 -3 28 -17 23 -17 -6
-17 -5 0 14 9 11 17 26 17 33 0 9 -4 8 -13 -5 -10 -12 -16 -14 -21 -7 -4 7 -4
17 -1 22 3 6 -1 10 -9 10 -9 0 -17 10 -18 23 -1 12 -5 -41 -8 -118 l-6 -140
-2 166 -2 165 -37 18 c-21 10 -94 52 -163 94 -111 67 -170 104 -342 215 -26
16 -45 33 -43 38 3 4 0 11 -6 15 -8 4 -9 3 -5 -4 10 -16 0 -15 -29 4 -14 9
-22 21 -18 27 3 6 1 7 -5 3 -7 -4 -12 -2 -12 4 0 6 -4 8 -10 5 -5 -3 -15 -3
-21 1 -8 4 -7 9 2 15 10 6 8 8 -6 7 -11 -1 -87 41 -170 93 -82 52 -178 112
-213 133 -34 21 -60 41 -57 46 3 5 0 12 -6 16 -8 4 -9 3 -5 -4 4 -7 4 -12 1
-12 -6 0 -115 70 -115 74 0 1 9 2 19 2 11 0 17 -4 15 -8 -3 -4 -1 -8 5 -8 5 0
18 -3 28 -7 14 -5 13 -1 -7 23 -14 15 -17 22 -7 15 9 -8 21 -11 24 -7 4 4 1
11 -7 16 -13 8 -12 10 3 10 9 0 17 -4 17 -10 0 -5 7 -10 16 -10 14 0 14 2 0
15 -8 8 -19 15 -25 15 -6 0 -11 4 -11 9 0 15 42 21 64 9 20 -11 20 -10 4 9
-22 24 -22 32 -4 47 10 7 13 21 9 39 -4 21 -8 25 -14 15 -6 -8 -9 -9 -9 -1 0
6 10 20 23 30 14 11 23 31 25 53 1 19 10 41 20 48 15 12 13 13 -13 7 -20 -5
-26 -4 -16 3 11 8 11 11 0 16 -8 3 -3 4 12 1 17 -3 31 2 42 15 9 11 15 20 14
20 -2 0 -27 -7 -56 -16 -29 -8 -55 -14 -57 -11 -8 8 114 39 126 32 8 -5 11 -4
7 2 -4 6 3 13 16 16 12 3 94 26 182 51 88 25 169 46 180 46 11 0 54 -18 95
-40 41 -23 64 -32 50 -21 -41 34 -125 71 -156 70 -16 0 -105 -23 -199 -51z"/>
</g>
</svg>
